<svg xmlns="http://www.w3.org/2000/svg" xmlns:xlink="http://www.w3.org/1999/xlink" xmlns:ev="http://www.w3.org/2001/xml-events" width="1132" height="804" viewBox="0 0 1132 804"><style type="text/css"><![CDATA[
.st6 {fill:#1f6391;font-family:Arial;font-size:10pt}
.st5 {fill:#1f6391;font-family:Arial;font-size:11pt;font-weight:bold}
.st3 {fill:#1f6391;font-family:Arial;font-size:11pt}
.st1 {fill:#1f6391;font-family:Arial;font-size:14pt;font-weight:bold}
.st4 {fill:#236ea1;font-family:Arial;font-size:10pt}
.st7 {font-size:10pt}
.st2 {font-weight:normal}
]]></style><defs/><g id="page1" transform="translate(5,5)"><rect width="1123" fill="#ffffff" stroke="#808080" x="0" height="794" y="0"/><g id="shape1" transform="translate(454.5,200)"><path d="M0,63.5C0,28.4,28.4,0,63.5,0C98.6,0,127,28.4,127,63.5C127,98.6,98.6,127,63.5,127C28.4,127,0,98.6,0,63.5z" fill="#ffffff" stroke="#83b3e3"/><text class="st1"><tspan x="37.6" y="58.7" class="st2">Traffic </tspan><tspan x="17.6" y="80.3" class="st2">Congestion</tspan></text></g><g id="shape2" transform="translate(542,45)"><path d="M0,42.5C0,19,19,0,42.5,0C66,0,85,19,85,42.5C85,66,66,85,42.5,85C19,85,0,66,0,42.5z" fill="#ffffff" stroke="#83b3e3"/><text class="st3"><tspan x="12" y="47.3">Variabiltiy</tspan></text></g><g id="shape3" transform="matrix(-0.2,0.98,-0.98,-0.2,542,87.5)"><path d="M0,0C29,16.7,82.5,17.5,110.9,2.3" fill="none" stroke="#3498db"/><path d="M114.9,0L108.9,0C109.8,.5,110.6,1.3,111.1,2.2C111.7,3.2,112,4.2,112,5.2L114.9,0" fill="#3498db" stroke="#3498db" stroke-linecap="round" stroke-width="1"/><text class="st4" transform="matrix(-0.2,-0.98,0.98,-0.2,54.1,79)"><tspan x="57.5" y="21.5">+</tspan></text></g><g id="shape4" transform="translate(370.5,86.5)"><path d="M0,45.5C0,20.4,20.4,0,45.5,0C70.6,0,91,20.4,91,45.5C91,70.6,70.6,91,45.5,91C20.4,91,0,70.6,0,45.5z" fill="#ffffff" stroke="#83b3e3"/><text class="st5"><tspan x="21.6" y="50.3" class="st2">Fatigue</tspan></text></g><g id="shape5" transform="matrix(0.23,0.97,-0.97,0.23,461.5,132)"><path d="M0,0C18.2,-27.8,56.3,-29.2,78.8,-4" fill="none" stroke="#236ea1"/><path d="M82.1,0L81.1,-5.9C80.8,-5,80.2,-4.1,79.3,-3.4C78.5,-2.7,77.5,-2.3,76.5,-2.1L82.1,0" fill="#236ea1" stroke="#236ea1" stroke-linecap="round" stroke-width="1"/><rect width="8.2" fill="#ffffff" x="38.2" height="16" y="-37.3" transform="matrix(0.23,-0.97,0.97,0.23,59.2,16)"/><text class="st6" transform="matrix(0.23,-0.97,0.97,0.23,59.2,16)"><tspan x="38.1" y="-25.3">+</tspan></text></g><g id="shape6" transform="translate(639,102)"><path d="M0,45C0,20.1,21.9,0,49,0C76.1,0,98,20.1,98,45C98,69.9,76.1,90,49,90C21.9,90,0,69.9,0,45z" fill="#ffffff" stroke="#83b3e3"/><text class="st3"><tspan x="20.8" y="41">Reaction </tspan><tspan x="33.6" y="58.6">Time</tspan></text></g><g id="shape7" transform="matrix(-0.83,0.56,-0.56,-0.83,639,147)"><path d="M0,0C33.3,35.3,85.1,36.7,107,4.2" fill="none" stroke="#236ea1"/><path d="M109.6,0L104.3,2.9C105.3,2.9,106.3,3.2,107.3,3.8C108.2,4.3,108.9,5.1,109.4,6L109.6,0" fill="#236ea1" stroke="#236ea1" stroke-linecap="round" stroke-width="1"/><rect width="8.2" fill="#ffffff" x="60.6" height="16" y="28.8" transform="matrix(-0.83,-0.56,0.56,-0.83,93.1,101.8)"/><text class="st6" transform="matrix(-0.83,-0.56,0.56,-0.83,93.1,101.8)"><tspan x="60.4" y="40.8">+</tspan></text></g><g id="shape8" transform="translate(280,159)"><path d="M0,45C0,20.1,20.1,0,45,0C69.9,0,90,20.1,90,45C90,69.9,69.9,90,45,90C20.1,90,0,69.9,0,45z" fill="#ffffff" stroke="#83b3e3"/><text class="st5"><tspan x="11.2" y="41" class="st2">Dimension </tspan><tspan x="14.4" y="58.6" class="st2">of Vehicle</tspan></text></g><g id="shape9" transform="matrix(0.96,0.27,-0.27,0.96,370,204)"><path d="M0,0C31.4,-36.8,78.1,-38.3,96.5,-4.6" fill="none" stroke="#236ea1"/><path d="M98.8,0L99.2,-6C98.6,-5.1,97.8,-4.4,96.8,-3.9C95.9,-3.5,94.8,-3.3,93.8,-3.4L98.8,0" fill="#236ea1" stroke="#236ea1" stroke-linecap="round" stroke-width="1"/><rect width="8.2" fill="#ffffff" x="56" height="16" y="-46.4" transform="matrix(0.96,-0.27,0.27,0.96,12.7,14.3)"/><text class="st6" transform="matrix(0.96,-0.27,0.27,0.96,12.7,14.3)"><tspan x="55.9" y="-34.4">+</tspan></text></g><g id="shape10" transform="translate(261,321)"><path d="M0,39.5C0,17.7,17.7,0,39.5,0C61.3,0,79,17.7,79,39.5C79,61.3,61.3,79,39.5,79C17.7,79,0,61.3,0,39.5z" fill="#ffffff" stroke="#83b3e3"/><text class="st3"><tspan x="12.8" y="35.5">Physical </tspan><tspan x="12" y="53.1">Strength</tspan></text></g><g id="shape11" transform="matrix(0.89,-0.45,0.45,0.89,301,321)"><path d="M0,0C37,-34.5,121,-35.3,171.1,-2.6" fill="none" stroke="#236ea1"/><path d="M174.9,0L172.3,-5.4C172.2,-4.4,171.9,-3.4,171.3,-2.5C170.6,-1.6,169.8,-0.9,168.9,-0.5L174.9,0" fill="#236ea1" stroke="#236ea1" stroke-linecap="round" stroke-width="1"/><rect width="4.9" fill="#ffffff" x="81.8" height="17.6" y="-44.2" transform="matrix(0.89,0.45,-0.45,0.89,-7.2,-40.7)"/><text class="st3" transform="matrix(0.89,0.45,-0.45,0.89,-7.2,-40.7)"><tspan x="81.6" y="-30.6">-</tspan></text></g><g id="shape12" transform="translate(341,367)"><path d="M0,39.5C0,17.7,17.7,0,39.5,0C61.3,0,79,17.7,79,39.5C79,61.3,61.3,79,39.5,79C17.7,79,0,61.3,0,39.5z" fill="#ffffff" stroke="#83b3e3"/><text class="st3"><tspan x="18.4" y="35.5">Visual </tspan><tspan x="20" y="53.1">Acuity</tspan></text></g><g id="shape13" transform="matrix(0.71,-0.71,0.71,0.71,408,379)"><path d="M0,0C23.5,-26.2,68.2,-27.5,92.5,-3.9" fill="none" stroke="#236ea1"/><path d="M96.2,0L94.8,-5.8C94.5,-4.9,94,-4,93.2,-3.2C92.4,-2.5,91.4,-2,90.4,-1.7L96.2,0" fill="#236ea1" stroke="#236ea1" stroke-linecap="round" stroke-width="1"/><rect width="4.9" fill="#ffffff" x="48.9" height="17.6" y="-36.4" transform="matrix(0.71,0.71,-0.71,0.71,-5.2,-42.6)"/><text class="st3" transform="matrix(0.71,0.71,-0.71,0.71,-5.2,-42.6)"><tspan x="48.8" y="-22.8">-</tspan></text></g><g id="shape14" transform="translate(442.5,401)"><path d="M0,41.5C0,18.6,18.6,0,41.5,0C64.4,0,83,18.6,83,41.5C83,64.4,64.4,83,41.5,83C18.6,83,0,64.4,0,41.5z" fill="#ffffff" stroke="#83b3e3"/><text class="st3"><tspan x="13.6" y="46.3">Dexterity</tspan></text></g><g id="shape15" transform="matrix(0.42,-0.91,0.91,0.42,484.5,401)"><path d="M0,0C13.7,-24.2,51.7,-25.2,78.1,-3" fill="none" stroke="#236ea1"/><path d="M81.4,0L79.6,-5.7C79.4,-4.7,78.9,-3.7,78.2,-2.9C77.4,-2.1,76.5,-1.5,75.6,-1.2L81.4,0" fill="#236ea1" stroke="#236ea1" stroke-linecap="round" stroke-width="1"/><rect width="4.9" fill="#ffffff" x="34.8" height="17.6" y="-34.1" transform="matrix(0.42,0.91,-0.91,0.42,-2.8,-46.2)"/><text class="st3" transform="matrix(0.42,0.91,-0.91,0.42,-2.8,-46.2)"><tspan x="34.6" y="-20.5">-</tspan></text></g><g id="shape16" transform="translate(646,283)"><path d="M0,64C0,28.7,28.7,0,64,0C99.3,0,128,28.7,128,64C128,99.3,99.3,128,64,128C28.7,128,0,99.3,0,64z" fill="#ffffff" stroke="#83b3e3"/><text class="st3"><tspan x="20" y="60">Psychological </tspan><tspan x="44" y="77.6">Factor</tspan></text></g><g id="shape17" transform="matrix(-0.86,-0.51,0.51,-0.86,646,347)"><path d="M0,0C12,-33.9,53.3,-35.1,84.3,-3.4" fill="none" stroke="#236ea1"/><path d="M87.5,0L86.1,-5.8C85.8,-4.9,85.3,-4,84.5,-3.2C83.7,-2.5,82.7,-2,81.7,-1.7L87.5,0" fill="#236ea1" stroke="#236ea1" stroke-linecap="round" stroke-width="1"/><rect width="8.2" fill="#ffffff" x="32.8" height="16" y="-43.1" transform="matrix(-0.86,0.51,-0.51,-0.86,45.6,-82.8)"/><text class="st6" transform="matrix(-0.86,0.51,-0.51,-0.86,45.6,-82.8)"><tspan x="32.7" y="-31.1">+</tspan></text></g><g id="shape18" transform="translate(609,506)"><path d="M0,49C0,21.9,21.9,0,49,0C76.1,0,98,21.9,98,49C98,76.1,76.1,98,49,98C21.9,98,0,76.1,0,49z" fill="#ffffff" stroke="#83b3e3"/><text class="st3"><tspan x="36.8" y="53" class="st7">Gap</tspan></text></g><g id="shape19" transform="matrix(-0.13,0.99,-0.99,-0.13,710,411)"><path d="M0,0C15,-10.2,67.1,-10.6,106.9,-1.3" fill="none" stroke="#236ea1"/><path d="M112,0L107.7,-4.2C108,-3.2,108,-2.1,107.7,-1.1C107.5,0,107,.9,106.2,1.7L112,0" fill="#236ea1" stroke="#236ea1" stroke-linecap="round" stroke-width="1"/></g><g id="shape20" transform="matrix(-0.9,-0.43,0.43,-0.9,658,506)"><path d="M0,0C24.6,31.7,94.8,32.5,142.8,2.5" fill="none" stroke="#236ea1"/><path d="M146.7,0L140.7,.3C141.6,.8,142.4,1.5,143,2.4C143.6,3.3,143.9,4.3,144,5.3L146.7,0" fill="#236ea1" stroke="#236ea1" stroke-linecap="round" stroke-width="1"/><rect width="4.9" fill="#ffffff" x="62.1" height="17.6" y="23.7" transform="matrix(-0.9,0.43,-0.43,-0.9,131.9,35.3)"/><text class="st3" transform="matrix(-0.9,0.43,-0.43,-0.9,131.9,35.3)"><tspan x="62" y="37.3">-</tspan></text></g><g id="shape21" transform="matrix(-0.87,-0.5,0.5,-0.87,658,604)"><path d="M0,0C90.9,-93.6,292.6,-94.8,407,-3.4" fill="none" stroke="#236ea1"/><path d="M411.2,0L409,-5.6C408.9,-4.6,408.5,-3.6,407.8,-2.8C407.1,-1.9,406.2,-1.3,405.3,-1L411.2,0" fill="#236ea1" stroke="#236ea1" stroke-linecap="round" stroke-width="1"/><rect width="4.9" fill="#ffffff" x="194.9" height="17.6" y="-103.6" transform="matrix(-0.87,0.5,-0.5,-0.87,316.9,-273.7)"/><text class="st3" transform="matrix(-0.87,0.5,-0.5,-0.87,316.9,-273.7)"><tspan x="194.8" y="-90">-</tspan></text></g><g id="shape22" transform="matrix(-0.9,-0.43,0.43,-0.9,609,555)"><path d="M0,0C62,-47.2,184.7,-48.1,249,-2.7" fill="none" stroke="#236ea1"/><path d="M252.7,0L250.3,-5.5C250.2,-4.5,249.8,-3.5,249.2,-2.6C248.5,-1.7,247.7,-1.1,246.8,-0.7L252.7,0" fill="#236ea1" stroke="#236ea1" stroke-linecap="round" stroke-width="1"/><rect width="4.9" fill="#ffffff" x="126.5" height="17.6" y="-56.9" transform="matrix(-0.9,0.43,-0.43,-0.9,219.6,-146)"/><text class="st3" transform="matrix(-0.9,0.43,-0.43,-0.9,219.6,-146)"><tspan x="126.4" y="-43.3">-</tspan></text></g></g></svg>